<svg xmlns="http://www.w3.org/2000/svg" viewBox="0 0 440 160" width="440" height="160">
  <defs>
    <linearGradient id="bg" x1="0%" y1="0%" x2="100%" y2="100%">
      <stop offset="0%" style="stop-color:#080a0b"/>
      <stop offset="100%" style="stop-color:#0e1012"/>
    </linearGradient>

    <!-- Gold/amber premium gradient -->
    <linearGradient id="gold" x1="0%" y1="0%" x2="100%" y2="100%">
      <stop offset="0%"   style="stop-color:#F5C842"/>
      <stop offset="35%"  style="stop-color:#E8920A"/>
      <stop offset="70%"  style="stop-color:#C97A08"/>
      <stop offset="100%" style="stop-color:#F5C842"/>
    </linearGradient>

    <linearGradient id="goldV" x1="0%" y1="0%" x2="0%" y2="100%">
      <stop offset="0%"   style="stop-color:#F5C842"/>
      <stop offset="40%"  style="stop-color:#E8920A"/>
      <stop offset="100%" style="stop-color:#9A6205"/>
    </linearGradient>

    <!-- Vault door metal -->
    <linearGradient id="vaultMetal" x1="0%" y1="0%" x2="100%" y2="100%">
      <stop offset="0%"   style="stop-color:#2e3338"/>
      <stop offset="30%"  style="stop-color:#1c2025"/>
      <stop offset="70%"  style="stop-color:#14181c"/>
      <stop offset="100%" style="stop-color:#0e1214"/>
    </linearGradient>

    <linearGradient id="vaultRim" x1="0%" y1="0%" x2="100%" y2="100%">
      <stop offset="0%"   style="stop-color:#4a5260"/>
      <stop offset="50%"  style="stop-color:#2a3038"/>
      <stop offset="100%" style="stop-color:#1a1e24"/>
    </linearGradient>

    <linearGradient id="dialMetal" x1="0%" y1="0%" x2="100%" y2="100%">
      <stop offset="0%"   style="stop-color:#3a4250"/>
      <stop offset="50%"  style="stop-color:#1e2428"/>
      <stop offset="100%" style="stop-color:#141820"/>
    </linearGradient>

    <linearGradient id="boltMetal" x1="0%" y1="0%" x2="100%" y2="100%">
      <stop offset="0%"   style="stop-color:#505a68"/>
      <stop offset="100%" style="stop-color:#1e2428"/>
    </linearGradient>

    <linearGradient id="textGold" x1="0%" y1="0%" x2="0%" y2="100%">
      <stop offset="0%"   style="stop-color:#F8D96A"/>
      <stop offset="40%"  style="stop-color:#E8920A"/>
      <stop offset="100%" style="stop-color:#B07008"/>
    </linearGradient>

    <linearGradient id="subtitleGold" x1="0%" y1="0%" x2="100%" y2="0%">
      <stop offset="0%"   style="stop-color:#9A7220"/>
      <stop offset="50%"  style="stop-color:#D4A830"/>
      <stop offset="100%" style="stop-color:#9A7220"/>
    </linearGradient>

    <!-- Glow filters -->
    <filter id="goldGlow" x="-20%" y="-20%" width="140%" height="140%">
      <feGaussianBlur stdDeviation="2.5" result="blur"/>
      <feComposite in="SourceGraphic" in2="blur" operator="over"/>
    </filter>

    <filter id="softGlow" x="-30%" y="-30%" width="160%" height="160%">
      <feGaussianBlur stdDeviation="4" result="blur"/>
      <feComposite in="SourceGraphic" in2="blur" operator="over"/>
    </filter>

    <filter id="innerShadow">
      <feGaussianBlur in="SourceAlpha" stdDeviation="2" result="blur"/>
      <feOffset dx="1" dy="2"/>
      <feComposite in2="SourceAlpha" operator="arithmetic" k2="-1" k3="1" result="shadow"/>
      <feColorMatrix type="matrix" values="0 0 0 0 0  0 0 0 0 0  0 0 0 0 0  0 0 0 0.4 0"/>
    </filter>

    <filter id="emboss">
      <feGaussianBlur in="SourceAlpha" stdDeviation="1" result="blur"/>
      <feSpecularLighting in="blur" surfaceScale="3" specularConstant="1.2" specularExponent="20" result="light">
        <fePointLight x="60" y="20" z="50"/>
      </feSpecularLighting>
      <feComposite in="light" in2="SourceGraphic" operator="in" result="specular"/>
      <feComposite in="SourceGraphic" in2="specular" operator="arithmetic" k1="0" k2="1" k3="0.4" k4="0"/>
    </filter>

    <clipPath id="vaultClip">
      <rect x="14" y="12" width="118" height="136" rx="6"/>
    </clipPath>
  </defs>

  <!-- ── BACKGROUND ── -->
  <rect width="440" height="160" fill="url(#bg)"/>

  <!-- Subtle ambient glow behind vault -->
  <ellipse cx="73" cy="80" rx="70" ry="70" fill="#E8920A" opacity="0.04"/>

  <!-- ══════════════════════════════════
       VAULT DOOR
  ══════════════════════════════════ -->

  <!-- Outer shadow/depth -->
  <rect x="16" y="14" width="118" height="134" rx="6" fill="#050607" opacity="0.8"/>

  <!-- Vault surround / wall -->
  <rect x="13" y="11" width="118" height="136" rx="7"
    fill="none" stroke="url(#gold)" stroke-width="1.2" opacity="0.4"/>

  <!-- Vault door face -->
  <rect x="15" y="13" width="114" height="132" rx="6" fill="url(#vaultMetal)"/>

  <!-- Door inner bevel -->
  <rect x="19" y="17" width="106" height="124" rx="4"
    fill="none" stroke="url(#vaultRim)" stroke-width="1.5"/>

  <!-- Door panel inset -->
  <rect x="23" y="21" width="98" height="116" rx="3"
    fill="#0c0e10" stroke="#1e2428" stroke-width="0.8" opacity="0.7"/>

  <!-- Top gold trim bar -->
  <rect x="15" y="13" width="114" height="5" rx="3"
    fill="url(#gold)" opacity="0.7"/>

  <!-- Bottom gold trim bar -->
  <rect x="15" y="140" width="114" height="5" rx="3"
    fill="url(#gold)" opacity="0.5"/>

  <!-- Left vertical gold accent -->
  <rect x="15" y="13" width="4" height="132" rx="2"
    fill="url(#goldV)" opacity="0.8" filter="url(#goldGlow)"/>

  <!-- ── CORNER BOLTS ── -->
  <!-- Each bolt: outer ring, metal face, gold cross -->
  <!-- TL -->
  <circle cx="36" cy="36" r="9" fill="#080a0b" stroke="url(#gold)" stroke-width="0.8" opacity="0.6"/>
  <circle cx="36" cy="36" r="7" fill="url(#boltMetal)"/>
  <circle cx="36" cy="36" r="4" fill="#0e1214" stroke="#2a3038" stroke-width="0.5"/>
  <line x1="36" y1="32" x2="36" y2="40" stroke="url(#gold)" stroke-width="1" opacity="0.7"/>
  <line x1="32" y1="36" x2="40" y2="36" stroke="url(#gold)" stroke-width="1" opacity="0.7"/>
  <circle cx="36" cy="36" r="1.5" fill="url(#gold)" opacity="0.9"/>

  <!-- TR -->
  <circle cx="108" cy="36" r="9" fill="#080a0b" stroke="url(#gold)" stroke-width="0.8" opacity="0.6"/>
  <circle cx="108" cy="36" r="7" fill="url(#boltMetal)"/>
  <circle cx="108" cy="36" r="4" fill="#0e1214" stroke="#2a3038" stroke-width="0.5"/>
  <line x1="108" y1="32" x2="108" y2="40" stroke="url(#gold)" stroke-width="1" opacity="0.7"/>
  <line x1="104" y1="36" x2="112" y2="36" stroke="url(#gold)" stroke-width="1" opacity="0.7"/>
  <circle cx="108" cy="36" r="1.5" fill="url(#gold)" opacity="0.9"/>

  <!-- BL -->
  <circle cx="36" cy="122" r="9" fill="#080a0b" stroke="url(#gold)" stroke-width="0.8" opacity="0.6"/>
  <circle cx="36" cy="122" r="7" fill="url(#boltMetal)"/>
  <circle cx="36" cy="122" r="4" fill="#0e1214" stroke="#2a3038" stroke-width="0.5"/>
  <line x1="36" y1="118" x2="36" y2="126" stroke="url(#gold)" stroke-width="1" opacity="0.7"/>
  <line x1="32" y1="122" x2="40" y2="122" stroke="url(#gold)" stroke-width="1" opacity="0.7"/>
  <circle cx="36" cy="122" r="1.5" fill="url(#gold)" opacity="0.9"/>

  <!-- BR -->
  <circle cx="108" cy="122" r="9" fill="#080a0b" stroke="url(#gold)" stroke-width="0.8" opacity="0.6"/>
  <circle cx="108" cy="122" r="7" fill="url(#boltMetal)"/>
  <circle cx="108" cy="122" r="4" fill="#0e1214" stroke="#2a3038" stroke-width="0.5"/>
  <line x1="108" y1="118" x2="108" y2="126" stroke="url(#gold)" stroke-width="1" opacity="0.7"/>
  <line x1="104" y1="122" x2="112" y2="122" stroke="url(#gold)" stroke-width="1" opacity="0.7"/>
  <circle cx="108" cy="122" r="1.5" fill="url(#gold)" opacity="0.9"/>

  <!-- ── COMBINATION DIAL ── -->
  <!-- Outer glow ring -->
  <circle cx="72" cy="80" r="32" fill="#E8920A" opacity="0.05" filter="url(#softGlow)"/>

  <!-- Outer bezel -->
  <circle cx="72" cy="80" r="30" fill="#080a0b" stroke="url(#gold)" stroke-width="1" opacity="0.5"/>

  <!-- Dial face outer -->
  <circle cx="72" cy="80" r="27" fill="url(#dialMetal)"/>

  <!-- Dial face inner -->
  <circle cx="72" cy="80" r="22" fill="#0a0c0e" stroke="#1e2428" stroke-width="0.8"/>

  <!-- Tick marks around dial — 12 marks -->
  <g stroke="url(#gold)" stroke-linecap="round" opacity="0.6">
    <!-- 12 o'clock — gold, prominent -->
    <line x1="72" y1="54" x2="72" y2="59" stroke-width="2" opacity="0.9"/>
    <!-- 1 -->
    <line x1="85.5" y1="56.8" x2="83.2" y2="60.8" stroke-width="1"/>
    <!-- 2 -->
    <line x1="95.2" y1="66.5" x2="91.2" y2="68.8" stroke-width="1"/>
    <!-- 3 o'clock -->
    <line x1="99" y1="80" x2="94" y2="80" stroke-width="1.5"/>
    <!-- 4 -->
    <line x1="95.2" y1="93.5" x2="91.2" y2="91.2" stroke-width="1"/>
    <!-- 5 -->
    <line x1="85.5" y1="103.2" x2="83.2" y2="99.2" stroke-width="1"/>
    <!-- 6 o'clock -->
    <line x1="72" y1="107" x2="72" y2="102" stroke-width="1.5"/>
    <!-- 7 -->
    <line x1="58.5" y1="103.2" x2="60.8" y2="99.2" stroke-width="1"/>
    <!-- 8 -->
    <line x1="48.8" y1="93.5" x2="52.8" y2="91.2" stroke-width="1"/>
    <!-- 9 o'clock -->
    <line x1="45" y1="80" x2="50" y2="80" stroke-width="1.5"/>
    <!-- 10 -->
    <line x1="48.8" y1="66.5" x2="52.8" y2="68.8" stroke-width="1"/>
    <!-- 11 -->
    <line x1="58.5" y1="56.8" x2="60.8" y2="60.8" stroke-width="1"/>
  </g>

  <!-- Dial inner ring detail -->
  <circle cx="72" cy="80" r="17" fill="none" stroke="#1e2428" stroke-width="0.6" stroke-dasharray="2,3"/>

  <!-- Indicator needle -->
  <line x1="72" y1="80" x2="72" y2="60" stroke="url(#gold)" stroke-width="2.5"
    stroke-linecap="round" filter="url(#goldGlow)" opacity="0.95"/>

  <!-- Center hub outer -->
  <circle cx="72" cy="80" r="6" fill="url(#boltMetal)" stroke="url(#gold)" stroke-width="0.8" opacity="0.8"/>
  <!-- Center hub inner -->
  <circle cx="72" cy="80" r="3.5" fill="#080a0b" stroke="#2a3038" stroke-width="0.5"/>
  <!-- Center jewel -->
  <circle cx="72" cy="80" r="2" fill="url(#gold)" filter="url(#goldGlow)"/>

  <!-- ── DOOR HANDLE ── -->
  <rect x="112" y="71" width="14" height="18" rx="4"
    fill="url(#boltMetal)" stroke="url(#gold)" stroke-width="0.8" opacity="0.7"/>
  <rect x="114" y="75" width="10" height="10" rx="2"
    fill="#080a0b" stroke="#1e2428" stroke-width="0.5"/>
  <circle cx="119" cy="80" r="2.5" fill="url(#dialMetal)" stroke="url(#gold)" stroke-width="0.5" opacity="0.8"/>

  <!-- ── THIN GOLD DOOR GAP LINE ── -->
  <line x1="129" y1="13" x2="129" y2="145"
    stroke="url(#goldV)" stroke-width="0.8" opacity="0.5"/>

  <!-- ══════════════════════════════════
       DIVIDER
  ══════════════════════════════════ -->
  <line x1="148" y1="22" x2="148" y2="136"
    stroke="url(#goldV)" stroke-width="1.5" filter="url(#goldGlow)" opacity="0.85"/>

  <!-- Small diamond at top and bottom of divider -->
  <polygon points="148,16 151,22 148,28 145,22"
    fill="url(#gold)" opacity="0.7"/>
  <polygon points="148,132 151,138 148,144 145,138"
    fill="url(#gold)" opacity="0.5"/>

  <!-- ══════════════════════════════════
       IVD LETTERMARK
  ══════════════════════════════════ -->

  <!-- IVD text — gold gradient, premium weight -->
  <text x="166" y="98"
    font-family="Georgia, 'Times New Roman', serif"
    font-weight="700"
    font-size="76"
    letter-spacing="-1"
    fill="url(#textGold)"
    filter="url(#goldGlow)">IVD</text>

  <!-- Thin gold rule under IVD -->
  <rect x="166" y="106" width="246" height="1.5" fill="url(#gold)" opacity="0.6"/>
  <rect x="166" y="106" width="80" height="1.5" fill="url(#gold)" opacity="0.9" filter="url(#goldGlow)"/>

  <!-- IRON VAULT DIGITAL subtitle -->
  <text x="166" y="126"
    font-family="Georgia, 'Times New Roman', serif"
    font-weight="400"
    font-size="10"
    letter-spacing="5.5"
    fill="url(#subtitleGold)">IRON VAULT DIGITAL</text>

  <!-- ── Small decorative diamond accents ── -->
  <polygon points="166,36 169,40 166,44 163,40" fill="url(#gold)" opacity="0.5"/>
  <polygon points="178,38 180,41 178,44 176,41" fill="url(#gold)" opacity="0.3"/>
  <polygon points="187,39 189,41 187,43 185,41" fill="url(#gold)" opacity="0.15"/>

</svg>
